<svg xmlns="http://www.w3.org/2000/svg" height="24" viewBox="0 -960 960 960" width="24"><path d="M480-246.154q79 0 133.5-56.577 54.5-56.578 58.346-137.116L708-406.462 741.538-440 650-531.538 558.462-440 592-406.462l32.154-32.154q-5.23 59.923-45.384 102.347-40.154 42.423-98.77 42.423-12.615 0-24.731-2.5-12.115-2.5-23.73-6.73l-35.538 35.537q20.077 9.693 41.076 15.539 21 5.846 42.923 5.846ZM310-348.462 401.538-440 368-473.538l-32.154 32.154q5.23-59.923 45.384-102.347 40.154-42.423 98.77-42.423 12.615 0 24.731 2.5 12.115 2.5 23.73 6.73l35.538-35.537q-20.077-9.693-41.076-15.539-21-5.846-42.923-5.846-79 0-133.5 56.577-54.5 56.578-58.346 137.116L252-473.538 218.462-440 310-348.462ZM172.309-140.001q-30.308 0-51.308-21t-21-51.308v-455.382q0-30.308 21-51.308t51.308-21h122.153l74-80h223.076l74 80h122.153q30.308 0 51.308 21t21 51.308v455.382q0 30.308-21 51.308t-51.308 21H172.309Zm0-59.999h615.382q5.385 0 8.847-3.462 3.462-3.462 3.462-8.847v-455.382q0-5.385-3.462-8.847-3.462-3.462-8.847-3.462H638.769l-73.384-80h-170.77l-73.384 80H172.309q-5.385 0-8.847 3.462-3.462 3.462-3.462 8.847v455.382q0 5.385 3.462 8.847 3.462 3.462 8.847 3.462ZM480-440Z"/></svg>